# xmcd CD database file
#
# Track frame offsets:
#	150
#	19885
#	39185
#	60452
#	81297
#	102057
#	117062
#	134627
#	156342
#	174155
#	192155
#	213520
#	233787
#
# Disc length: 3373 seconds
#
# Revision: 0
# Processed by: cddbd v1.5.1PL2 Copyright (c) Steve Scherf et al.
# Submitted via: CDex 1.51
#
DISCID=a40d2b0d
DTITLE=3LW - 163LW
DYEAR=2000
DGENRE=R&B
TTITLE0=NO MORE
TTITLE1=IS YOU FEELIN' ME
TTITLE2=PLAYAS GON' PLAY
TTITLE3=GETTIN TOO HEAVY
TTITLE4=I'M GONNA MAKE YOU MISS YOU
TTITLE5=NOT THIS TIME
TTITLE6=MORE THAN FRINDS (THA'T RIGHT)
TTITLE7=CURIOUS
TTITLE8='TIL I SAY SO
TTITLE9=CRUSH ON YOU
TTITLE10=OCEAN
TTITLE11=I CAN'T TAKE IT (NO MORE REMIX)  feat. NAS
TTITLE12=DEAR DIARY
EXTD=YEAR: 2000
EXTT0=
EXTT1=
EXTT2=
EXTT3=
EXTT4=
EXTT5=
EXTT6=
EXTT7=
EXTT8=
EXTT9=
EXTT10=
EXTT11=
EXTT12=
PLAYORDER=
